<!DOCTYPE svg PUBLIC "-//W3C//DTD SVG 20010904//EN" "http://www.w3.org/TR/2001/REC-SVG-20010904/DTD/svg10.dtd">
<svg version="1.0" xmlns="http://www.w3.org/2000/svg" width="1417px" height="1417px" viewBox="0 0 14170 14170" preserveAspectRatio="xMidYMid meet">
<g id="layer101" fill="#df5656" stroke="none">
 <path d="M6560 13883 c-490 -48 -773 -96 -1155 -193 -2167 -553 -3928 -2143 -4698 -4240 -233 -635 -365 -1264 -408 -1945 -15 -240 -7 -800 15 -1024 126 -1292 582 -2471 1349 -3487 1112 -1474 2778 -2432 4617 -2653 299 -36 460 -45 815 -45 355 0 521 9 811 44 1724 209 3289 1057 4404 2385 911 1085 1467 2456 1570 3870 17 227 8 992 -14 1185 -100 891 -320 1637 -712 2410 -881 1741 -2497 3030 -4393 3504 -359 90 -752 157 -1096 186 -108 9 -1020 12 -1105 3z m1068 -278 c1780 -144 3449 -1033 4567 -2435 834 -1045 1325 -2315 1415 -3658 13 -198 13 -623 0 -827 -94 -1447 -661 -2813 -1620 -3905 -204 -233 -561 -574 -800 -766 -979 -786 -2143 -1269 -3390 -1408 -269 -30 -479 -39 -820 -33 -331 6 -441 13 -675 42 -1709 215 -3243 1071 -4311 2406 -811 1014 -1299 2242 -1410 3549 -20 237 -23 765 -6 990 111 1419 644 2715 1559 3786 163 191 516 544 707 707 814 695 1758 1171 2806 1412 363 84 764 137 1205 159 136 7 588 -4 773 -19z"/>
 <path d="M8786 13070 c-267 -48 -443 -222 -522 -515 -15 -56 -19 -106 -19 -255 0 -210 15 -291 81 -425 136 -279 447 -412 770 -330 187 48 343 192 419 385 46 116 60 204 59 370 0 162 -9 226 -50 343 -68 198 -212 344 -398 403 -90 28 -253 40 -340 24z m318 -214 c167 -82 259 -255 273 -516 15 -285 -85 -503 -274 -597 -67 -33 -86 -38 -168 -41 -150 -7 -247 31 -344 133 -100 106 -151 263 -151 465 0 264 92 460 258 548 81 44 121 52 234 48 89 -3 105 -6 172 -40z"/>
 <path d="M5782 13045 c-18 -8 -35 -21 -38 -30 -6 -14 -9 -13 -26 4 -10 12 -29 23 -41 26 -12 3 -204 5 -427 3 -384 -3 -407 -4 -439 -23 -19 -11 -43 -33 -55 -48 -21 -28 -21 -35 -24 -712 l-2 -683 26 -21 c47 -37 131 -23 153 26 8 17 11 208 11 632 0 508 2 610 14 627 14 18 31 19 390 22 l375 3 21 26 20 26 18 -44 c9 -24 129 -325 267 -669 236 -590 252 -626 285 -648 29 -20 45 -23 90 -20 71 5 102 28 134 98 56 124 526 1320 526 1339 0 37 -42 73 -90 78 -75 8 -86 -7 -175 -242 l-78 -205 -325 2 -326 3 -77 205 c-50 131 -86 211 -100 222 -25 21 -62 22 -107 3z m866 -622 c-3 -10 -55 -149 -117 -310 -61 -160 -116 -312 -123 -337 l-12 -45 -31 92 c-24 69 -167 442 -232 605 -4 9 51 12 257 12 245 0 262 -1 258 -17z"/>
 <path d="M7195 13035 c-49 -17 -81 -53 -95 -105 -7 -26 -10 -242 -8 -652 3 -596 4 -614 23 -648 12 -19 36 -43 55 -55 33 -19 55 -20 315 -23 306 -4 405 5 490 43 147 65 220 211 194 391 -17 122 -74 204 -172 249 l-49 23 36 11 c172 47 269 225 237 436 -30 193 -152 305 -365 334 -119 17 -611 14 -661 -4z m635 -166 c70 -15 139 -64 167 -119 54 -106 36 -249 -41 -326 -67 -67 -104 -74 -413 -74 l-263 0 0 249 c0 214 2 252 16 265 13 14 50 16 249 16 131 0 256 -5 285 -11z m-9 -705 c70 -21 132 -81 149 -144 7 -25 10 -73 7 -108 -6 -79 -40 -132 -106 -164 -44 -22 -59 -23 -304 -26 -190 -3 -262 0 -273 8 -11 10 -14 53 -14 231 l0 219 243 0 c195 0 254 -3 298 -16z"/>
 <path d="M9065 11384 c-11 -2 -45 -9 -75 -15 -187 -38 -325 -174 -376 -371 -14 -53 -18 -139 -21 -558 -5 -531 -3 -558 42 -578 59 -27 128 -7 145 41 6 19 10 198 10 503 0 498 3 541 46 626 65 129 186 185 375 176 194 -10 299 -90 344 -265 12 -47 15 -143 15 -534 0 -306 4 -487 10 -506 27 -75 158 -71 181 6 7 24 9 196 6 531 -3 420 -6 505 -20 558 -51 192 -171 316 -357 368 -53 15 -284 28 -325 18z"/>
 <path d="M4545 11345 l-25 -24 0 -690 c0 -424 4 -700 10 -715 32 -85 199 -88 254 -4 22 34 413 1024 449 1139 18 54 34 99 37 99 3 0 18 -42 33 -93 47 -150 437 -1130 460 -1155 12 -13 34 -30 49 -38 36 -18 112 -18 148 1 62 32 60 8 60 752 0 373 -3 688 -6 701 -18 64 -144 68 -173 5 -21 -46 -10 -913 14 -1193 6 -62 3 -56 -56 115 -54 158 -336 878 -403 1029 -28 64 -71 96 -128 96 -50 0 -79 -15 -105 -53 -29 -42 -315 -766 -409 -1032 -70 -199 -74 -207 -69 -145 23 288 33 1123 15 1177 -20 56 -111 73 -155 28z"/>
 <path d="M6103 11355 c-35 -15 -53 -42 -53 -77 0 -13 123 -329 273 -703 257 -644 274 -681 307 -703 29 -20 45 -23 90 -20 71 5 102 28 134 98 56 124 526 1320 526 1339 0 37 -42 73 -90 78 -75 8 -86 -7 -175 -242 l-78 -205 -325 2 -326 3 -77 205 c-50 131 -86 211 -100 222 -25 21 -62 22 -106 3z m865 -622 c-3 -10 -55 -149 -117 -310 -61 -160 -116 -312 -123 -337 l-12 -45 -31 92 c-24 69 -167 442 -232 605 -4 9 51 12 257 12 245 0 262 -1 258 -17z"/>
 <path d="M7454 11358 c-12 -5 -27 -20 -33 -32 -9 -15 -11 -201 -9 -686 3 -648 4 -666 23 -700 12 -19 36 -43 55 -55 33 -19 51 -20 355 -20 311 0 322 1 394 24 129 42 208 126 237 250 45 189 -23 368 -167 439 -35 17 -73 34 -83 37 -18 5 -16 8 12 25 45 27 87 88 148 215 66 138 174 406 174 434 0 37 -41 72 -91 78 -71 8 -87 -13 -164 -217 -122 -326 -185 -422 -290 -449 -24 -6 -126 -11 -229 -11 l-186 0 0 305 c0 201 -4 312 -11 328 -19 42 -86 59 -135 35z m712 -865 c84 -45 128 -121 128 -223 1 -109 -54 -193 -147 -224 -70 -23 -508 -24 -531 0 -14 13 -16 50 -16 245 l0 230 263 -3 c247 -3 264 -4 303 -25z"/>
 <path d="M8643 9515 c-7 -8 -13 -26 -13 -40 0 -14 -4 -25 -10 -25 -5 0 -10 -15 -10 -34 0 -19 -4 -38 -10 -41 -5 -3 -10 -22 -10 -41 0 -19 -4 -34 -9 -34 -5 0 -11 -15 -14 -32 -12 -78 -32 -158 -39 -158 -5 0 -8 -16 -8 -35 0 -19 -4 -35 -10 -35 -5 0 -10 -13 -10 -30 0 -16 -4 -30 -10 -30 -5 0 -10 -13 -10 -30 0 -16 -4 -30 -10 -30 -5 0 -10 -15 -10 -34 0 -19 -4 -38 -10 -41 -5 -3 -10 -17 -10 -31 0 -13 -4 -24 -10 -24 -5 0 -10 -13 -10 -29 0 -17 -4 -33 -10 -36 -5 -3 -10 -19 -10 -35 0 -16 -4 -31 -9 -35 -5 -3 -13 -30 -16 -60 -4 -30 -11 -55 -16 -55 -5 0 -9 -13 -9 -30 0 -16 -4 -30 -10 -30 -5 0 -10 -11 -10 -25 0 -14 -4 -25 -10 -25 -5 0 -10 -18 -10 -40 0 -22 -4 -40 -10 -40 -5 0 -10 -11 -10 -24 0 -14 -4 -28 -10 -31 -5 -3 -10 -17 -10 -31 0 -13 -4 -24 -10 -24 -5 0 -10 -13 -10 -30 0 -16 -4 -30 -10 -30 -5 0 -10 -13 -10 -30 0 -16 -4 -30 -10 -30 -5 0 -10 -8 -10 -18 0 -10 -5 -23 -12 -30 -7 -7 -14 -51 -16 -105 -5 -104 3 -128 57 -184 17 -18 31 -35 31 -39 0 -3 18 -23 40 -44 22 -21 40 -44 40 -51 0 -12 20 -32 66 -65 15 -10 60 -52 100 -91 41 -40 76 -73 79 -73 8 0 42 -31 129 -117 41 -40 77 -73 80 -73 8 0 40 -29 119 -107 35 -35 66 -63 70 -63 11 0 107 -89 142 -132 42 -51 58 -98 35 -98 -5 0 -10 -11 -10 -24 0 -14 -4 -28 -10 -31 -5 -3 -10 -14 -10 -24 0 -10 -7 -32 -15 -47 -8 -16 -15 -41 -15 -56 0 -16 -4 -28 -10 -28 -5 0 -10 -11 -10 -25 0 -14 -4 -25 -10 -25 -5 0 -10 -9 -10 -20 0 -11 -4 -20 -10 -20 -5 0 -10 -13 -10 -30 0 -16 -4 -30 -10 -30 -5 0 -10 -9 -10 -20 0 -11 -4 -20 -10 -20 -5 0 -10 -11 -10 -25 0 -14 -4 -25 -10 -25 -5 0 -10 -13 -10 -30 0 -16 -4 -30 -10 -30 -5 0 -10 -7 -10 -15 0 -8 -4 -23 -10 -33 -13 -23 -40 -109 -40 -127 0 -8 -4 -15 -10 -15 -5 0 -10 -13 -10 -30 0 -16 -3 -30 -7 -30 -11 0 -33 -50 -33 -72 0 -10 -4 -18 -10 -18 -5 0 -10 -13 -10 -30 0 -16 -4 -30 -10 -30 -5 0 -10 -9 -10 -20 0 -11 -4 -20 -10 -20 -5 0 -10 -11 -10 -25 0 -14 -3 -25 -7 -25 -5 0 -21 -43 -38 -95 -16 -52 -33 -95 -37 -95 -5 0 -8 -13 -8 -30 0 -16 -4 -30 -10 -30 -5 0 -10 -13 -10 -30 0 -16 -3 -30 -7 -30 -18 0 -33 -58 -33 -122 l0 -68 55 -55 c30 -30 57 -55 60 -55 3 0 21 -15 39 -32 55 -55 85 -78 101 -78 8 0 15 -4 15 -9 0 -11 101 -111 112 -111 10 0 42 -27 91 -77 17 -18 36 -33 40 -33 5 0 25 -17 45 -38 20 -21 55 -51 77 -67 87 -65 105 -90 105 -144 0 -45 -4 -53 -45 -93 -24 -24 -45 -49 -45 -56 0 -18 -25 -42 -44 -42 -9 0 -16 -4 -16 -10 0 -5 -13 -10 -30 -10 -16 0 -30 5 -30 10 0 6 -7 10 -16 10 -8 0 -33 18 -54 40 -21 22 -41 40 -44 40 -7 0 -49 35 -92 78 -18 17 -36 32 -39 32 -3 0 -28 23 -57 51 -28 27 -65 57 -81 66 -17 8 -51 37 -75 64 -24 27 -50 49 -56 49 -6 0 -18 9 -26 20 -8 11 -22 20 -32 20 -9 0 -20 5 -23 10 -8 13 -72 13 -80 0 -3 -5 -13 -10 -22 -10 -23 0 -83 -70 -83 -97 0 -13 -4 -23 -9 -23 -6 0 -13 -20 -17 -45 -3 -25 -10 -45 -15 -45 -5 0 -9 -13 -9 -30 0 -16 -4 -30 -10 -30 -5 0 -10 -9 -10 -20 0 -11 -4 -20 -10 -20 -5 0 -10 -11 -10 -25 0 -14 -4 -25 -10 -25 -5 0 -10 -9 -10 -19 0 -11 -4 -23 -10 -26 -5 -3 -10 -17 -10 -31 0 -13 -4 -24 -10 -24 -5 0 -10 -13 -10 -30 0 -16 -4 -30 -10 -30 -5 0 -10 -9 -10 -20 0 -11 -4 -20 -10 -20 -5 0 -10 -11 -10 -24 0 -14 -4 -27 -9 -30 -5 -3 -12 -26 -15 -51 -4 -25 -11 -45 -17 -45 -5 0 -9 -5 -9 -10 0 -17 -47 -60 -65 -60 -8 0 -15 -4 -15 -10 0 -5 -9 -10 -20 -10 -11 0 -20 5 -20 10 0 6 -11 10 -24 10 -14 0 -28 4 -31 10 -3 6 -17 10 -31 10 -13 0 -24 5 -24 10 0 6 -8 10 -17 10 -10 0 -33 13 -50 29 -28 25 -33 35 -33 75 0 25 5 46 10 46 6 0 10 9 10 20 0 11 5 20 10 20 6 0 10 11 10 25 0 14 5 25 10 25 6 0 10 9 10 19 0 11 5 23 10 26 6 3 10 17 10 31 0 13 5 24 10 24 6 0 10 14 10 30 0 17 5 30 10 30 6 0 10 7 10 15 0 8 4 23 10 33 13 23 40 109 40 127 0 8 5 15 10 15 6 0 10 11 10 25 0 14 5 25 10 25 6 0 10 9 10 20 0 11 5 20 10 20 6 0 10 14 10 30 0 17 5 30 10 30 6 0 10 9 10 20 0 11 9 35 20 55 11 20 20 44 20 55 0 11 3 20 8 20 4 0 20 43 37 95 16 52 33 95 37 95 5 0 8 14 8 30 0 17 5 30 10 30 6 0 10 11 10 25 0 14 5 25 10 25 6 0 10 9 10 20 0 11 5 20 10 20 6 0 10 14 10 30 0 17 5 30 10 30 6 0 10 9 10 20 0 11 5 20 10 20 6 0 10 11 10 24 0 14 5 28 10 31 6 3 10 17 10 31 0 13 4 24 9 24 6 0 13 21 17 48 4 26 10 49 13 52 13 11 31 51 31 70 0 11 5 20 10 20 6 0 10 14 10 30 0 17 5 30 10 30 6 0 10 9 10 20 0 11 5 20 10 20 6 0 10 11 10 25 0 14 5 25 10 25 6 0 10 14 10 30 0 17 5 30 10 30 6 0 10 9 10 20 0 11 5 20 10 20 6 0 10 8 10 19 0 10 7 32 15 47 8 16 15 41 15 57 0 15 5 27 10 27 6 0 10 14 10 30 0 17 5 30 10 30 6 0 10 7 10 15 0 8 5 15 10 15 6 0 10 14 10 30 0 17 5 30 10 30 6 0 10 9 10 20 0 11 5 20 10 20 6 0 10 14 10 30 0 17 5 30 10 30 6 0 10 11 10 25 0 14 5 25 10 25 6 0 10 9 10 19 0 11 5 23 10 26 6 3 10 17 10 30 0 13 4 26 9 29 5 4 12 24 16 46 4 22 11 40 16 40 15 0 10 95 -8 131 -16 32 -150 169 -165 169 -4 0 -44 36 -89 80 -45 45 -98 93 -117 108 -20 15 -69 59 -109 98 -40 39 -88 82 -108 95 -19 13 -35 30 -35 37 0 18 -110 123 -121 116 -5 -3 -9 -16 -9 -30 0 -13 -4 -24 -10 -24 -5 0 -10 -9 -10 -20 0 -11 -4 -20 -10 -20 -5 0 -10 -9 -10 -19 0 -10 -6 -21 -14 -24 -19 -8 -136 4 -142 14 -3 5 -34 9 -70 9 -36 0 -64 4 -64 10 0 6 -75 10 -204 10 -126 0 -207 -4 -211 -10 -3 -5 -35 -10 -71 -10 -36 0 -64 -4 -64 -10 0 -14 -36 -12 -62 3 -12 6 -47 37 -77 67 -58 57 -152 130 -168 130 -5 0 -15 9 -23 20 -8 11 -22 20 -32 20 -10 0 -18 5 -18 10 0 6 -9 10 -19 10 -11 0 -21 3 -23 8 -7 16 -177 90 -230 99 -16 3 -28 9 -28 14 0 5 -13 9 -30 9 -16 0 -30 5 -30 10 0 6 -13 10 -30 10 -16 0 -30 5 -30 10 0 6 -11 10 -24 10 -14 0 -28 5 -31 10 -3 6 -22 10 -41 10 -19 0 -34 5 -34 10 0 6 -20 10 -44 10 -25 0 -48 5 -51 10 -3 6 -26 10 -51 10 -24 0 -44 5 -44 10 0 6 -24 10 -53 10 -29 0 -58 5 -64 11 -17 17 -495 18 -501 1 -2 -7 -22 -12 -47 -12 -24 0 -47 -4 -50 -10 -3 -5 -17 -10 -30 -10 -13 0 -27 -4 -30 -10 -3 -5 -17 -10 -31 -10 -13 0 -24 -4 -24 -10 0 -5 -9 -10 -20 -10 -11 0 -20 -4 -20 -10 0 -5 -9 -10 -20 -10 -11 0 -20 -4 -20 -10 0 -5 -9 -10 -20 -10 -11 0 -20 -4 -20 -10 0 -5 -5 -10 -11 -10 -14 0 -39 -25 -39 -39 0 -6 -4 -11 -10 -11 -6 0 -10 -27 -10 -60 0 -33 4 -60 10 -60 6 0 10 -7 10 -15 0 -19 36 -55 55 -55 8 0 15 -4 15 -10 0 -5 18 -10 40 -10 22 0 40 -4 40 -10 0 -5 14 -10 30 -10 17 0 30 -4 30 -10 0 -5 16 -10 35 -10 19 0 35 -4 35 -10 0 -5 18 -10 40 -10 22 0 40 -4 40 -10 0 -5 11 -10 24 -10 14 0 28 -4 31 -10 3 -5 22 -10 41 -10 19 0 34 -4 34 -10 0 -5 13 -10 29 -10 17 0 32 -4 35 -9 3 -5 33 -12 66 -16 33 -4 60 -11 60 -16 0 -5 18 -9 40 -9 22 0 40 -4 40 -10 0 -5 11 -10 24 -10 14 0 28 -4 31 -10 3 -5 22 -10 41 -10 19 0 34 -4 34 -10 0 -5 16 -10 35 -10 19 0 35 -4 35 -10 0 -5 14 -10 30 -10 17 0 30 -4 30 -10 0 -5 18 -10 40 -10 22 0 40 -4 40 -10 0 -5 11 -10 24 -10 14 0 28 -4 31 -10 3 -5 21 -10 40 -10 19 0 36 -4 39 -9 3 -5 27 -12 52 -16 46 -7 76 -28 102 -73 14 -26 16 -72 2 -72 -5 0 -10 -15 -10 -34 0 -19 -4 -38 -10 -41 -5 -3 -10 -22 -10 -41 0 -19 -4 -34 -10 -34 -5 0 -10 -18 -10 -39 0 -22 -4 -42 -9 -46 -6 -3 -13 -37 -17 -75 -3 -39 -11 -70 -15 -70 -5 0 -9 -16 -9 -35 0 -19 -4 -35 -10 -35 -5 0 -10 -13 -10 -30 0 -16 -4 -30 -10 -30 -5 0 -10 -18 -10 -40 0 -22 -4 -40 -10 -40 -5 0 -10 -15 -10 -34 0 -19 -4 -38 -10 -41 -5 -3 -10 -22 -10 -41 0 -19 -4 -34 -10 -34 -5 0 -10 -15 -10 -34 0 -19 -4 -38 -10 -41 -5 -3 -10 -15 -10 -26 0 -22 -26 -76 -46 -96 -15 -15 -124 -18 -124 -3 0 6 -12 10 -27 10 -41 0 -123 42 -123 63 0 9 -4 17 -10 17 -5 0 -10 18 -10 40 0 22 5 40 10 40 6 0 10 16 10 35 0 19 5 35 10 35 6 0 10 18 10 40 0 22 5 40 10 40 6 0 10 15 10 34 0 19 5 38 10 41 6 3 10 21 10 40 0 19 4 36 9 40 6 3 13 37 17 75 3 39 11 70 15 70 5 0 9 36 9 80 0 76 -2 82 -32 115 -24 27 -39 35 -65 35 -18 0 -33 5 -33 10 0 6 -13 10 -29 10 -17 0 -32 4 -35 9 -3 5 -33 12 -66 16 -33 4 -60 11 -60 16 0 5 -15 9 -34 9 -19 0 -38 5 -41 10 -3 6 -17 10 -31 10 -13 0 -24 5 -24 10 0 6 -18 10 -40 10 -22 0 -40 5 -40 10 0 6 -11 10 -24 10 -14 0 -28 5 -31 10 -3 6 -22 10 -41 10 -19 0 -34 5 -34 10 0 6 -18 10 -40 10 -22 0 -40 5 -40 10 0 6 -11 10 -24 10 -14 0 -28 5 -31 10 -3 6 -21 10 -40 10 -19 0 -36 4 -40 10 -3 5 -32 12 -65 16 -33 4 -60 11 -60 15 0 5 -13 9 -30 9 -16 0 -30 5 -30 10 0 6 -18 10 -40 10 -22 0 -40 5 -40 10 0 6 -11 10 -24 10 -14 0 -28 5 -31 10 -3 6 -22 10 -41 10 -19 0 -34 5 -34 10 0 6 -16 10 -35 10 -19 0 -35 -4 -35 -10 0 -5 -11 -10 -25 -10 -28 0 -75 -40 -75 -64 0 -8 -4 -16 -8 -18 -12 -5 -50 -90 -57 -131 -4 -20 -11 -37 -16 -37 -5 0 -9 -9 -9 -20 0 -11 -4 -20 -10 -20 -5 0 -10 -11 -10 -25 0 -14 -4 -25 -10 -25 -5 0 -10 -9 -10 -20 0 -11 -4 -20 -10 -20 -5 0 -10 -13 -10 -30 0 -16 -4 -30 -10 -30 -5 0 -10 -11 -10 -25 0 -14 -4 -25 -10 -25 -5 0 -10 -9 -10 -19 0 -11 -4 -23 -10 -26 -5 -3 -10 -17 -10 -31 0 -13 -4 -24 -10 -24 -18 0 -10 -45 10 -60 11 -8 20 -21 20 -30 0 -9 9 -22 20 -30 11 -8 20 -21 20 -30 0 -9 9 -22 20 -30 11 -8 20 -20 20 -27 0 -6 8 -18 18 -25 10 -7 22 -25 26 -40 3 -16 11 -28 16 -28 6 0 10 -7 10 -16 0 -9 8 -24 18 -33 9 -9 24 -29 32 -46 8 -16 23 -37 32 -46 10 -9 18 -23 18 -30 0 -8 9 -21 20 -29 11 -8 20 -22 20 -32 0 -10 3 -18 8 -18 4 0 16 -16 26 -35 11 -19 23 -35 28 -35 4 0 8 -8 8 -18 0 -10 9 -24 20 -32 11 -8 20 -21 20 -30 0 -9 9 -22 20 -30 11 -8 20 -19 20 -26 0 -6 9 -19 20 -29 11 -10 20 -24 20 -32 0 -7 4 -13 8 -13 5 0 17 -18 27 -40 10 -22 22 -40 27 -40 4 0 8 -6 8 -13 0 -7 9 -23 20 -35 11 -12 20 -25 20 -29 0 -5 9 -15 20 -23 11 -8 20 -21 20 -30 0 -9 9 -22 20 -30 11 -8 20 -22 20 -32 0 -10 3 -18 8 -18 4 0 16 -16 26 -35 11 -19 23 -35 28 -35 4 0 8 -8 8 -18 0 -10 9 -24 20 -32 11 -8 20 -20 20 -26 0 -6 19 -31 41 -54 l41 -43 96 5 c58 3 98 10 100 17 2 6 14 11 27 11 13 0 27 5 30 10 3 6 15 10 26 10 10 0 19 5 19 10 0 6 11 10 24 10 14 0 28 5 31 10 3 6 17 10 31 10 13 0 24 5 24 10 0 6 14 10 30 10 17 0 30 5 30 10 0 6 9 10 20 10 11 0 20 5 20 10 0 6 11 10 25 10 14 0 25 5 25 10 0 6 11 10 24 10 13 0 37 7 52 15 16 8 39 15 51 15 12 0 25 5 28 10 3 6 17 10 31 10 13 0 24 5 24 10 0 6 11 10 24 10 14 0 28 5 31 10 3 6 15 10 26 10 10 0 19 5 19 10 0 6 11 10 24 10 14 0 28 5 31 10 3 6 17 10 31 10 13 0 24 5 24 10 0 6 9 10 20 10 11 0 20 5 20 10 0 6 14 10 30 10 17 0 30 5 30 10 0 6 7 10 17 10 24 0 127 33 131 42 2 5 14 8 27 8 13 0 27 5 30 10 3 6 17 10 31 10 13 0 24 5 24 10 0 6 9 10 20 10 11 0 20 5 20 10 0 6 14 10 30 10 17 0 30 5 30 10 0 6 11 10 25 10 14 0 25 5 25 10 0 6 14 10 30 10 17 0 30 5 30 10 0 6 9 10 20 10 11 0 20 5 20 10 0 6 10 10 23 10 26 0 121 32 125 43 2 4 17 7 33 7 16 0 29 5 29 10 0 6 11 10 24 10 14 0 28 5 31 10 3 6 17 10 31 10 13 0 24 5 24 10 0 6 9 10 20 10 11 0 20 5 20 10 0 6 14 10 30 10 17 0 30 5 30 10 0 6 11 10 25 10 14 0 25 5 25 10 0 6 9 10 20 10 11 0 20 5 20 10 0 6 11 10 25 10 26 0 108 24 137 40 10 6 25 10 33 10 8 0 15 5 15 10 0 6 23 10 50 10 28 0 50 -4 50 -10 0 -5 7 -10 15 -10 8 0 19 -9 25 -19 13 -25 13 -136 0 -160 -5 -10 -12 -55 -16 -100 -4 -44 -11 -81 -15 -81 -5 0 -9 -20 -9 -45 0 -25 -4 -45 -10 -45 -5 0 -10 -22 -10 -50 0 -27 -4 -50 -10 -50 -5 0 -10 -20 -10 -45 0 -25 -4 -45 -10 -45 -5 0 -10 -22 -10 -50 0 -27 -4 -50 -10 -50 -5 0 -10 -20 -10 -45 0 -25 -4 -45 -10 -45 -5 0 -10 -18 -10 -39 0 -22 -4 -43 -10 -46 -5 -3 -10 -26 -10 -50 0 -24 -4 -47 -10 -50 -5 -3 -10 -21 -10 -38 -1 -18 -7 -59 -15 -92 -8 -33 -15 -79 -15 -102 0 -24 -4 -43 -10 -43 -5 0 -10 -20 -10 -44 0 -25 -4 -48 -10 -51 -5 -3 -10 -26 -10 -51 0 -24 -4 -44 -10 -44 -5 0 -10 -20 -10 -45 0 -25 -4 -45 -10 -45 -5 0 -10 -22 -10 -50 0 -27 -4 -50 -10 -50 -5 0 -10 -20 -10 -45 0 -25 -4 -45 -10 -45 -5 0 -10 -22 -10 -50 0 -27 -4 -50 -10 -50 -5 0 -10 -20 -10 -43 0 -24 -3 -47 -7 -51 -10 -9 -31 -127 -39 -217 -6 -58 -4 -70 17 -102 13 -20 30 -37 37 -37 6 0 12 -4 12 -10 0 -5 23 -10 50 -10 28 0 50 -4 50 -10 0 -6 28 -10 65 -10 37 0 65 -4 65 -10 0 -6 27 -10 60 -10 33 0 60 -4 60 -10 0 -6 28 -10 65 -10 37 0 65 -4 65 -10 0 -5 24 -10 54 -10 30 0 58 -4 61 -10 3 -5 33 -10 65 -10 32 0 62 -4 65 -10 3 -5 34 -10 69 -10 34 0 66 -4 72 -9 5 -6 60 -13 122 -17 61 -4 112 -11 112 -15 0 -5 27 -9 60 -9 33 0 60 -4 60 -10 0 -6 28 -10 65 -10 37 0 65 -4 65 -10 0 -6 28 -10 65 -10 37 0 65 -4 65 -10 0 -6 27 -10 60 -10 33 0 60 -4 60 -10 0 -5 7 -10 16 -10 18 0 53 -38 54 -57 0 -7 5 -13 10 -13 6 0 10 -13 10 -30 0 -16 -4 -30 -10 -30 -6 0 -10 -27 -10 -60 0 -33 -4 -60 -10 -60 -5 0 -10 -6 -10 -12 -1 -20 -36 -58 -53 -58 -9 0 -17 -6 -20 -12 -4 -10 -7 -10 -18 0 -7 7 -38 12 -70 12 -32 0 -61 4 -64 10 -3 5 -35 10 -71 10 -35 0 -64 4 -64 9 0 5 -54 12 -120 16 -66 4 -120 11 -120 16 0 5 -27 9 -60 9 -33 0 -60 4 -60 10 0 6 -28 10 -65 10 -37 0 -65 4 -65 10 0 6 -28 10 -65 10 -37 0 -65 4 -65 10 0 6 -27 10 -60 10 -33 0 -60 4 -60 10 0 6 -28 10 -65 10 -37 0 -65 4 -65 10 0 6 -27 10 -60 10 -33 0 -60 4 -60 10 0 6 -28 10 -65 10 -37 0 -65 4 -65 10 0 6 -28 10 -63 10 -35 0 -67 4 -73 9 -5 6 -62 13 -126 17 -65 4 -118 11 -118 15 0 5 -25 9 -55 9 -30 0 -55 5 -55 10 0 6 -22 10 -50 10 -27 0 -50 5 -50 10 0 6 -5 10 -11 10 -12 0 -29 17 -46 48 -15 25 -17 92 -4 92 5 0 11 21 14 48 3 26 10 70 16 97 5 28 15 86 21 130 7 44 16 88 21 97 5 10 9 36 9 58 0 22 5 40 10 40 6 0 10 20 10 44 0 25 5 48 10 51 6 3 10 26 10 51 0 24 5 44 10 44 6 0 10 20 10 44 0 25 5 48 10 51 6 3 10 26 10 51 0 24 5 44 10 44 6 0 10 20 10 44 0 25 4 47 9 50 10 6 14 31 33 174 6 50 15 92 20 92 4 0 8 20 8 44 0 25 5 48 10 51 6 3 10 26 10 51 0 24 5 44 10 44 6 0 10 20 10 44 0 25 5 48 10 51 6 3 10 26 10 51 0 24 5 44 10 44 6 0 10 20 10 44 0 25 5 48 10 51 6 3 10 42 10 86 0 46 -4 79 -10 79 -5 0 -10 9 -10 20 0 13 -7 20 -20 20 -11 0 -20 5 -20 10 0 6 -9 10 -20 10 -11 0 -20 5 -20 10 0 6 -16 10 -35 10 -19 0 -35 -4 -35 -10 0 -5 -13 -10 -30 -10 -16 0 -30 -4 -30 -10 0 -5 -11 -10 -24 -10 -14 0 -28 -4 -31 -10 -3 -5 -17 -10 -31 -10 -13 0 -24 -4 -24 -9 0 -6 -20 -13 -45 -17 -25 -3 -48 -10 -51 -15 -3 -5 -16 -9 -30 -9 -13 0 -24 -4 -24 -10 0 -5 -11 -10 -24 -10 -14 0 -28 -4 -31 -10 -3 -5 -15 -10 -26 -10 -10 0 -19 -4 -19 -10 0 -5 -11 -10 -24 -10 -14 0 -28 -4 -31 -10 -3 -5 -17 -10 -31 -10 -13 0 -24 -4 -24 -10 0 -5 -9 -10 -20 -10 -11 0 -20 -4 -20 -10 0 -5 -13 -10 -30 -10 -16 0 -30 -4 -30 -9 0 -5 -12 -11 -27 -14 -67 -13 -123 -31 -123 -39 0 -4 -11 -8 -24 -8 -14 0 -28 -4 -31 -10 -3 -5 -17 -10 -31 -10 -13 0 -24 -4 -24 -10 0 -5 -9 -10 -20 -10 -11 0 -20 -4 -20 -10 0 -5 -13 -10 -30 -10 -16 0 -30 -4 -30 -10 0 -5 -11 -10 -24 -10 -14 0 -28 -4 -31 -10 -3 -5 -17 -10 -31 -10 -13 0 -24 -4 -24 -10 0 -5 -9 -10 -20 -10 -11 0 -20 -4 -20 -10 0 -5 -10 -10 -21 -10 -26 0 -123 -32 -127 -42 -2 -5 -17 -8 -33 -8 -16 0 -29 -4 -29 -10 0 -5 -11 -10 -24 -10 -14 0 -28 -4 -31 -10 -3 -5 -17 -10 -31 -10 -13 0 -24 -4 -24 -10 0 -5 -9 -10 -20 -10 -11 0 -20 -4 -20 -10 0 -5 -13 -10 -30 -10 -16 0 -30 -4 -30 -10 0 -5 -8 -10 -18 -10 -22 0 -72 -22 -72 -32 0 -5 -10 -8 -22 -8 -26 0 -134 -32 -144 -43 -4 -4 -16 -7 -26 -7 -10 0 -18 -4 -18 -10 0 -5 -18 -10 -40 -10 -22 0 -40 3 -40 8 0 4 -13 16 -30 27 -16 11 -37 36 -46 57 -9 21 -21 38 -26 38 -4 0 -8 6 -8 13 0 7 -9 23 -20 35 -11 12 -20 25 -20 29 0 5 -9 15 -20 23 -11 8 -20 21 -20 30 0 9 -9 22 -20 30 -11 8 -20 22 -20 32 0 10 -4 18 -8 18 -5 0 -16 15 -25 33 -25 47 -40 70 -60 88 -9 9 -17 23 -17 30 0 8 -9 21 -20 29 -11 8 -20 21 -20 30 0 9 -9 22 -20 30 -11 8 -20 20 -20 27 0 7 -4 13 -8 13 -5 0 -16 18 -26 40 -10 22 -22 40 -27 40 -5 0 -9 8 -9 18 0 10 -9 24 -20 32 -11 8 -20 20 -20 27 0 7 -9 18 -20 25 -11 7 -20 20 -20 28 0 9 -9 22 -20 30 -11 8 -20 22 -20 31 0 9 -7 22 -15 29 -8 7 -15 18 -15 25 0 6 -9 20 -20 30 -11 10 -20 23 -20 29 0 7 -9 18 -20 26 -11 8 -20 21 -20 30 0 9 -9 22 -20 30 -11 8 -20 21 -20 29 0 7 -8 21 -19 30 -10 9 -21 26 -25 39 -4 12 -12 22 -17 22 -5 0 -9 8 -9 18 0 10 -9 24 -20 32 -11 8 -20 22 -20 32 0 10 -4 18 -10 18 -5 0 -10 6 -10 13 0 7 -9 19 -20 27 -11 8 -20 21 -20 30 0 9 -9 22 -20 30 -11 8 -20 22 -20 32 0 10 -4 18 -8 18 -5 0 -16 15 -25 33 -25 47 -40 70 -59 88 -10 9 -18 23 -18 30 0 8 -9 21 -20 29 -11 8 -20 19 -20 25 0 5 -12 23 -26 40 -23 27 -32 30 -97 33 -40 2 -99 -2 -132 -8 -33 -6 -77 -14 -98 -17 -20 -3 -40 -9 -43 -14 -3 -5 -21 -9 -40 -9 -19 0 -34 -4 -34 -10 0 -5 -13 -10 -30 -10 -16 0 -30 -4 -30 -10 0 -5 -15 -10 -34 -10 -19 0 -38 -4 -41 -10 -3 -5 -17 -10 -31 -10 -13 0 -24 -4 -24 -10 0 -5 -9 -10 -20 -10 -11 0 -20 -4 -20 -10 0 -5 -13 -10 -30 -10 -16 0 -30 -4 -30 -10 0 -5 -9 -10 -19 -10 -11 0 -23 -4 -26 -10 -3 -5 -12 -10 -20 -10 -21 0 -141 -58 -155 -75 -7 -8 -19 -15 -26 -15 -8 0 -14 -4 -14 -10 0 -5 -8 -10 -18 -10 -10 0 -24 -9 -32 -20 -8 -11 -20 -20 -28 -20 -7 0 -25 -11 -40 -25 -15 -14 -31 -25 -35 -25 -5 0 -30 -22 -57 -50 -27 -27 -55 -50 -62 -50 -7 -1 -29 -21 -48 -47 -19 -25 -54 -65 -77 -89 -24 -24 -43 -49 -43 -57 0 -7 -9 -19 -20 -27 -11 -8 -20 -19 -20 -26 0 -6 -9 -19 -19 -28 -11 -10 -22 -28 -25 -42 -4 -13 -11 -24 -16 -24 -6 0 -10 -9 -10 -20 0 -11 -4 -20 -10 -20 -5 0 -10 -9 -10 -20 0 -11 -3 -20 -7 -20 -11 0 -33 -50 -33 -72 0 -10 -4 -18 -10 -18 -5 0 -10 -9 -10 -20 0 -11 -4 -20 -10 -20 -5 0 -10 -13 -10 -30 0 -16 -4 -30 -10 -30 -5 0 -10 -9 -10 -19 0 -11 -4 -23 -10 -26 -5 -3 -10 -19 -10 -34 0 -15 -4 -31 -9 -36 -11 -13 -31 -164 -31 -233 0 -39 8 -70 31 -118 17 -35 35 -64 40 -64 5 0 9 -6 9 -13 0 -7 9 -19 20 -27 11 -8 20 -21 20 -30 0 -9 9 -22 20 -30 11 -8 20 -21 20 -29 0 -7 8 -21 18 -30 9 -9 26 -34 37 -56 11 -22 28 -47 37 -56 10 -9 18 -23 18 -30 0 -8 9 -21 20 -29 11 -8 20 -21 20 -30 0 -9 9 -22 20 -30 11 -8 20 -20 20 -27 0 -7 4 -13 8 -13 5 0 17 -18 27 -40 10 -22 22 -40 27 -40 4 0 8 -9 8 -20 0 -11 5 -20 10 -20 6 0 10 -5 10 -10 0 -16 68 -80 85 -80 8 0 15 -4 15 -10 0 -5 25 -10 55 -10 30 0 55 5 55 10 0 6 7 10 16 10 27 0 94 96 94 135 0 8 5 15 10 15 6 0 10 8 10 18 0 10 9 24 20 32 11 8 20 22 20 32 0 10 5 18 10 18 6 0 10 7 10 15 0 8 5 15 10 15 6 0 10 9 10 20 0 11 5 20 10 20 6 0 10 9 10 20 0 11 5 20 10 20 6 0 10 9 10 20 0 11 3 20 8 20 10 0 42 58 42 76 0 8 5 14 10 14 6 0 10 9 10 20 0 11 5 20 10 20 6 0 10 7 10 16 0 9 8 24 18 33 10 9 25 31 33 49 7 17 17 32 21 32 5 0 8 9 8 20 0 11 5 20 10 20 6 0 10 9 10 20 0 11 5 20 10 20 6 0 10 8 10 19 0 10 7 24 15 31 8 7 15 19 15 26 0 8 5 14 10 14 6 0 10 9 10 20 0 11 5 20 10 20 6 0 10 9 10 20 0 11 5 20 10 20 6 0 10 8 10 18 0 10 9 24 20 32 11 8 20 18 20 23 0 12 20 29 50 45 21 11 30 11 51 0 42 -22 89 -66 89 -82 0 -9 5 -16 10 -16 6 0 10 -9 10 -20 0 -11 5 -20 10 -20 6 0 10 -9 10 -20 0 -11 5 -20 10 -20 6 0 10 -8 10 -18 0 -10 7 -27 15 -38 8 -10 15 -27 15 -36 0 -10 5 -18 10 -18 6 0 10 -9 10 -20 0 -11 5 -20 10 -20 6 0 10 -9 10 -20 0 -11 5 -20 10 -20 6 0 10 -9 10 -20 0 -11 5 -20 10 -20 6 0 10 -7 10 -15 0 -8 5 -15 10 -15 6 0 10 -9 10 -20 0 -11 5 -20 10 -20 6 0 10 -9 10 -20 0 -11 5 -20 10 -20 6 0 10 -9 10 -20 0 -11 5 -20 10 -20 6 0 10 -8 10 -18 0 -10 7 -27 15 -38 8 -10 15 -27 15 -36 0 -10 5 -18 10 -18 6 0 10 -9 10 -20 0 -11 5 -20 10 -20 6 0 10 -9 10 -20 0 -11 5 -20 10 -20 6 0 10 -9 10 -20 0 -11 5 -20 10 -20 6 0 10 -7 10 -15 0 -8 5 -15 10 -15 6 0 10 -9 10 -20 0 -11 5 -20 10 -20 6 0 10 -9 10 -20 0 -11 5 -20 10 -20 6 0 10 -9 10 -20 0 -11 4 -20 9 -20 5 0 12 -16 15 -35 4 -19 11 -35 16 -35 6 0 10 -9 10 -20 0 -11 5 -20 10 -20 6 0 10 -9 10 -20 0 -11 5 -20 10 -20 6 0 10 -9 10 -20 0 -11 5 -20 10 -20 6 0 10 -9 10 -20 0 -11 5 -20 10 -20 6 0 10 -7 10 -15 0 -8 5 -15 10 -15 6 0 10 -7 10 -15 0 -23 46 -65 70 -65 11 0 20 -4 20 -10 0 -5 15 -10 34 -10 19 0 38 5 41 10 3 6 19 10 36 10 16 0 29 5 29 10 0 6 16 10 35 10 19 0 35 5 35 10 0 6 15 10 34 10 19 0 38 5 41 10 3 6 17 10 31 10 13 0 24 5 24 10 0 6 18 10 40 10 22 0 40 4 40 9 0 5 29 13 65 16 36 4 65 11 65 16 0 5 15 9 34 9 19 0 38 4 41 10 3 6 17 10 30 10 13 0 27 5 30 10 3 6 22 10 41 10 19 0 34 5 34 10 0 6 15 10 34 10 19 0 38 5 41 10 3 6 17 10 30 10 13 0 27 5 30 10 3 6 22 10 41 10 19 0 34 5 34 10 0 6 14 10 30 10 17 0 30 5 30 10 0 6 11 10 25 10 32 0 154 28 177 41 10 5 31 9 48 9 16 0 30 5 30 10 0 6 15 10 34 10 19 0 38 5 41 10 3 6 17 10 30 10 13 0 27 4 30 10 3 6 22 10 41 10 19 0 34 5 34 10 0 6 14 10 30 10 17 0 30 5 30 10 0 6 16 10 35 10 19 0 35 5 35 10 0 6 18 10 40 10 22 0 40 5 40 10 0 6 21 10 46 10 40 0 50 -5 75 -32 16 -18 29 -43 29 -55 0 -12 5 -25 10 -28 6 -3 10 -17 10 -31 0 -13 5 -24 10 -24 14 0 12 -86 -2 -112 -25 -44 -63 -68 -108 -68 -16 0 -30 -4 -30 -9 0 -5 -29 -13 -65 -16 -36 -4 -65 -11 -65 -16 0 -5 -15 -9 -34 -9 -19 0 -38 -4 -41 -10 -3 -5 -19 -10 -36 -10 -16 0 -29 -4 -29 -10 0 -5 -16 -10 -35 -10 -19 0 -35 -4 -35 -10 0 -5 -18 -10 -40 -10 -22 0 -40 -4 -40 -10 0 -5 -11 -10 -24 -10 -14 0 -28 -4 -31 -10 -3 -5 -22 -10 -41 -10 -19 0 -34 -4 -34 -10 0 -5 -13 -10 -30 -10 -16 0 -30 -4 -30 -10 0 -5 -11 -10 -25 -10 -32 0 -154 -28 -177 -41 -10 -5 -31 -9 -48 -9 -16 0 -30 -4 -30 -10 0 -5 -13 -10 -30 -10 -16 0 -30 -4 -30 -10 0 -5 -15 -10 -34 -10 -19 0 -38 -4 -41 -10 -3 -5 -22 -10 -41 -10 -19 0 -34 -4 -34 -10 0 -5 -13 -10 -30 -10 -16 0 -30 -4 -30 -10 0 -5 -15 -10 -34 -10 -19 0 -38 -4 -41 -10 -3 -5 -22 -10 -41 -10 -19 0 -34 -4 -34 -8 0 -7 -52 -20 -157 -38 -18 -4 -33 -10 -33 -15 0 -5 -15 -9 -34 -9 -19 0 -38 -5 -41 -10 -3 -5 -22 -10 -41 -10 -19 0 -34 -4 -34 -10 0 -5 -13 -10 -30 -10 -16 0 -30 -4 -30 -10 0 -5 -15 -10 -34 -10 -19 0 -38 -4 -41 -10 -3 -5 -22 -10 -41 -10 -19 0 -34 -4 -34 -10 0 -5 -13 -10 -30 -10 -16 0 -30 -4 -30 -10 0 -5 -9 -10 -20 -10 -11 0 -20 5 -20 10 0 6 -6 10 -13 10 -18 0 -47 36 -77 95 -14 28 -28 52 -32 53 -5 2 -8 12 -8 23 0 10 -4 19 -10 19 -5 0 -10 9 -10 20 0 11 -4 20 -10 20 -5 0 -10 9 -10 20 0 11 -3 20 -8 20 -4 0 -13 15 -21 33 -29 69 -86 182 -93 185 -4 2 -8 12 -8 23 0 10 -4 19 -10 19 -5 0 -10 9 -10 20 0 11 -4 20 -10 20 -5 0 -10 9 -10 20 0 11 -4 20 -8 20 -5 0 -14 16 -22 35 -8 19 -17 35 -22 35 -4 0 -8 6 -8 14 0 26 -60 145 -86 171 -14 14 -34 25 -44 25 -11 0 -20 5 -20 10 0 14 -98 12 -116 -2 -47 -39 -67 -65 -86 -109 -12 -27 -25 -49 -30 -49 -4 0 -8 -9 -8 -20 0 -11 -4 -20 -10 -20 -5 0 -10 -7 -10 -15 0 -8 -4 -15 -10 -15 -5 0 -10 -9 -10 -20 0 -11 -4 -20 -10 -20 -5 0 -10 -9 -10 -20 0 -11 -4 -20 -10 -20 -5 0 -10 -7 -10 -16 0 -9 -8 -24 -18 -33 -20 -18 -72 -120 -72 -142 0 -8 -9 -21 -20 -29 -11 -8 -20 -22 -20 -32 0 -10 -4 -18 -10 -18 -5 0 -10 -7 -10 -15 0 -8 -4 -15 -10 -15 -5 0 -10 -9 -10 -20 0 -11 -4 -20 -10 -20 -5 0 -10 -9 -10 -20 0 -11 -4 -20 -10 -20 -5 0 -10 -9 -10 -20 0 -11 -4 -20 -8 -20 -12 0 -62 -93 -62 -114 0 -9 -4 -16 -10 -16 -5 0 -10 -7 -10 -16 0 -9 -14 -29 -31 -45 -26 -24 -40 -29 -80 -29 -31 0 -53 5 -61 15 -7 9 -23 27 -35 40 -13 13 -23 31 -23 40 0 8 -4 15 -10 15 -5 0 -10 6 -10 13 0 7 -9 23 -20 35 -11 12 -20 25 -20 29 0 5 -9 15 -20 23 -11 8 -20 22 -20 32 0 10 -4 18 -8 18 -5 0 -16 15 -25 32 -25 48 -40 71 -60 89 -9 9 -17 23 -17 30 0 8 -9 21 -20 29 -11 8 -20 21 -20 30 0 9 -9 22 -20 30 -11 8 -20 22 -20 32 0 10 -4 18 -10 18 -5 0 -17 16 -26 35 -9 19 -20 35 -25 35 -5 0 -9 9 -9 20 0 11 -4 20 -10 20 -5 0 -10 6 -10 13 0 7 -9 23 -20 35 -11 12 -20 25 -20 29 0 5 -9 15 -20 23 -11 8 -20 20 -20 28 0 16 -29 47 -37 39 -8 -9 15 -244 27 -266 5 -11 10 -33 10 -50 0 -16 5 -33 10 -36 6 -3 10 -19 10 -36 0 -16 5 -29 10 -29 6 0 10 -16 10 -35 0 -19 5 -35 10 -35 6 0 10 -13 10 -30 0 -16 5 -30 10 -30 6 0 10 -8 10 -18 0 -22 22 -72 33 -72 4 0 7 -13 7 -30 0 -16 3 -30 8 -30 4 0 16 -27 26 -61 11 -33 23 -62 28 -65 4 -3 8 -14 8 -25 0 -10 5 -19 10 -19 6 0 10 -9 10 -20 0 -11 5 -20 10 -20 6 0 10 -9 10 -20 0 -11 5 -20 10 -20 6 0 10 -9 10 -20 0 -11 5 -20 10 -20 6 0 10 -7 10 -15 0 -8 5 -15 10 -15 6 0 10 -9 10 -20 0 -11 5 -20 10 -20 6 0 10 -9 10 -20 0 -11 4 -20 8 -20 5 0 17 -19 28 -42 10 -24 26 -50 36 -59 10 -9 18 -23 18 -30 0 -8 9 -21 20 -29 11 -8 20 -21 20 -30 0 -9 9 -22 20 -30 11 -8 20 -19 20 -24 0 -5 8 -16 19 -25 10 -9 26 -32 36 -51 10 -19 26 -42 36 -51 11 -9 19 -21 19 -26 0 -6 26 -34 58 -64 32 -30 64 -65 72 -79 12 -24 224 -240 235 -240 5 0 30 -22 120 -107 24 -24 47 -43 50 -43 2 0 25 -20 51 -44 25 -24 59 -50 75 -56 15 -7 31 -20 34 -29 3 -10 18 -24 32 -32 15 -8 41 -26 57 -41 16 -16 33 -28 39 -28 5 0 17 -8 26 -18 9 -10 31 -27 49 -37 17 -11 32 -23 32 -27 0 -4 8 -8 18 -8 10 0 24 -9 32 -20 8 -11 21 -20 30 -20 9 0 22 -9 30 -20 8 -11 18 -20 23 -20 4 0 17 -9 29 -20 12 -11 28 -20 35 -20 7 0 13 -4 13 -8 0 -5 18 -17 40 -27 22 -10 40 -21 40 -24 0 -3 15 -13 33 -21 17 -7 41 -22 51 -32 11 -10 26 -18 33 -18 7 0 13 -4 13 -10 0 -5 9 -10 20 -10 11 0 20 -4 20 -10 0 -5 7 -10 15 -10 9 0 26 -9 38 -21 12 -11 34 -23 50 -26 15 -3 27 -9 27 -14 0 -5 9 -9 20 -9 11 0 20 -4 20 -10 0 -5 9 -10 20 -10 11 0 20 -4 20 -8 0 -5 16 -14 35 -22 19 -8 35 -17 35 -22 0 -4 9 -8 20 -8 11 0 20 -4 20 -10 0 -5 9 -10 20 -10 11 0 20 -4 20 -10 0 -5 9 -10 20 -10 11 0 20 -4 20 -10 0 -5 8 -10 18 -10 9 0 26 -7 36 -15 11 -8 32 -15 48 -15 15 0 28 -4 28 -10 0 -5 9 -10 20 -10 11 0 20 -4 20 -10 0 -5 9 -10 20 -10 11 0 20 -4 20 -10 0 -5 11 -10 25 -10 14 0 25 -4 25 -10 0 -5 9 -10 20 -10 11 0 20 -4 20 -10 0 -5 14 -10 30 -10 17 0 30 -4 30 -10 0 -5 9 -10 20 -10 11 0 20 -4 20 -10 0 -5 11 -10 24 -10 14 0 28 -4 31 -10 3 -5 17 -10 30 -10 13 0 26 -4 29 -9 4 -5 29 -12 56 -16 28 -4 50 -11 50 -16 0 -5 14 -9 30 -9 17 0 30 -4 30 -10 0 -5 14 -10 30 -10 17 0 30 -4 30 -10 0 -5 11 -10 24 -10 14 0 28 -4 31 -10 3 -5 21 -10 40 -10 18 0 35 -6 38 -12 3 -10 9 -10 26 0 11 6 30 12 41 12 11 0 20 5 20 10 0 6 9 10 20 10 12 0 20 7 20 16 0 9 8 24 18 33 19 17 112 199 112 219 0 7 5 12 10 12 6 0 10 9 10 20 0 11 5 20 10 20 6 0 10 32 10 75 0 43 -4 75 -10 75 -5 0 -10 7 -10 16 0 22 -25 44 -49 44 -12 0 -21 5 -21 10 0 6 -13 10 -30 10 -16 0 -30 5 -30 10 0 6 -14 10 -30 10 -17 0 -38 4 -48 9 -32 16 -87 30 -144 37 -32 4 -58 11 -58 15 0 5 -13 9 -30 9 -16 0 -30 5 -30 10 0 6 -18 10 -40 10 -22 0 -40 5 -40 10 0 6 -11 10 -24 10 -14 0 -28 4 -31 10 -3 5 -22 10 -41 10 -19 0 -34 5 -34 10 0 6 -18 10 -40 10 -22 0 -40 5 -40 10 0 6 -11 10 -24 10 -14 0 -28 5 -31 10 -3 6 -22 10 -41 10 -19 0 -34 4 -34 9 0 5 -15 11 -32 15 -106 18 -158 31 -158 38 0 4 -16 8 -35 8 -19 0 -35 5 -35 10 0 6 -18 10 -40 10 -22 0 -40 5 -40 10 0 6 -13 10 -30 10 -16 0 -30 5 -30 10 0 6 -16 10 -35 10 -19 0 -35 5 -35 10 0 6 -13 10 -30 10 -16 0 -30 5 -30 10 0 6 -18 10 -40 10 -22 0 -40 5 -40 10 0 6 -16 10 -35 10 -19 0 -35 4 -35 9 0 5 -15 11 -32 14 -99 16 -158 49 -158 89 0 10 -4 18 -10 18 -5 0 -10 9 -10 20 0 11 5 20 10 20 6 0 10 7 10 16 0 20 20 39 48 48 12 4 22 12 22 17 0 5 9 9 20 9 11 0 20 5 20 10 0 6 9 10 20 10 11 0 20 5 20 10 0 6 9 10 20 10 11 0 20 5 20 10 0 6 5 10 10 10 6 0 20 9 32 20 12 11 28 20 35 20 7 0 13 5 13 10 0 6 9 10 20 10 11 0 20 5 20 10 0 6 9 10 20 10 11 0 20 3 20 8 0 4 20 16 45 27 25 11 45 23 45 27 0 5 9 8 20 8 11 0 20 5 20 10 0 6 9 10 20 10 11 0 20 5 20 10 0 6 6 10 13 10 7 0 23 9 35 20 12 11 26 20 32 20 5 0 10 5 10 10 0 6 9 10 20 10 11 0 20 5 20 10 0 6 9 10 20 10 11 0 20 5 20 10 0 6 8 10 19 10 10 0 23 6 29 13 6 7 27 19 47 27 19 7 35 17 35 22 0 4 9 8 20 8 11 0 20 5 20 10 0 6 9 10 20 10 11 0 20 5 20 10 0 6 6 10 13 10 7 0 23 9 35 20 12 11 26 20 32 20 5 0 10 5 10 10 0 6 6 10 13 10 15 0 120 49 127 59 3 4 20 14 38 22 17 8 32 17 32 21 0 5 9 8 20 8 11 0 20 5 20 10 0 6 8 10 18 10 10 0 24 9 32 20 8 11 22 20 31 20 10 0 19 3 21 8 2 4 31 20 66 36 34 16 62 33 62 38 0 4 9 8 20 8 11 0 20 5 20 10 0 6 7 10 15 10 8 0 15 5 15 10 0 6 9 10 20 10 11 0 20 5 20 10 0 6 8 10 18 10 10 0 24 9 32 20 8 11 22 20 32 20 10 0 18 5 18 10 0 6 6 10 12 10 19 0 118 52 118 62 0 4 26 8 58 8 55 0 58 -2 85 -39 15 -22 27 -45 27 -53 0 -7 9 -20 20 -28 11 -8 20 -22 20 -32 0 -10 5 -18 10 -18 6 0 10 -18 10 -40 0 -44 -21 -73 -72 -99 -16 -8 -28 -18 -28 -23 0 -4 -7 -8 -15 -8 -8 0 -15 -4 -15 -10 0 -5 -9 -10 -20 -10 -11 0 -20 -4 -20 -10 0 -5 -9 -10 -20 -10 -11 0 -20 -4 -20 -10 0 -5 -8 -10 -18 -10 -10 0 -24 -9 -32 -20 -8 -11 -29 -23 -47 -26 -18 -3 -33 -10 -33 -15 0 -5 -9 -9 -19 -9 -11 0 -21 -3 -23 -7 -1 -5 -24 -19 -50 -32 -27 -13 -48 -28 -48 -33 0 -4 -7 -8 -15 -8 -8 0 -15 -4 -15 -10 0 -5 -9 -10 -20 -10 -11 0 -20 -4 -20 -10 0 -5 -9 -10 -20 -10 -11 0 -20 -4 -20 -10 0 -5 -9 -10 -20 -10 -11 0 -20 -4 -20 -10 0 -5 -11 -12 -25 -16 -14 -3 -25 -10 -25 -15 0 -5 -9 -9 -20 -9 -11 0 -20 -4 -20 -10 0 -5 -9 -10 -20 -10 -11 0 -20 -4 -20 -10 0 -5 -6 -10 -13 -10 -7 0 -22 -8 -33 -18 -10 -10 -34 -25 -51 -32 -18 -8 -33 -18 -33 -22 0 -5 -9 -8 -20 -8 -11 0 -20 -4 -20 -10 0 -5 -9 -10 -20 -10 -11 0 -20 -4 -20 -8 0 -5 -19 -16 -41 -26 -23 -10 -44 -27 -46 -37 -3 -11 -9 -19 -14 -19 -5 0 -9 -9 -9 -20 0 -11 -4 -20 -10 -20 -5 0 -10 -16 -10 -35 0 -19 5 -35 10 -35 6 0 10 -11 10 -25 0 -31 41 -75 70 -75 11 0 20 -4 20 -10 0 -5 18 -10 40 -10 22 0 40 -4 40 -10 0 -5 13 -10 29 -10 17 0 33 -4 36 -10 3 -5 16 -10 28 -10 12 0 40 -7 62 -15 22 -8 55 -14 73 -15 17 0 32 -4 32 -10 0 -5 18 -10 40 -10 22 0 40 -4 40 -10 0 -5 14 -10 30 -10 17 0 30 -4 30 -10 0 -5 16 -10 35 -10 19 0 35 -4 35 -10 0 -5 14 -10 30 -10 17 0 30 -4 30 -10 0 -5 18 -10 40 -10 22 0 40 -4 40 -10 0 -5 16 -10 35 -10 19 0 35 -4 35 -10 0 -5 13 -10 29 -10 17 0 33 -4 36 -10 3 -5 16 -10 28 -10 12 0 40 -7 62 -15 22 -8 57 -14 78 -15 20 0 37 -4 37 -10 0 -5 16 -10 35 -10 19 0 35 -4 35 -10 0 -5 14 -10 30 -10 17 0 30 -4 30 -10 0 -5 7 -10 15 -10 9 0 28 -12 42 -26 20 -20 26 -37 27 -72 1 -28 -4 -47 -11 -49 -7 -3 -13 -13 -13 -24 0 -10 -4 -19 -10 -19 -5 0 -10 -9 -10 -20 0 -11 -4 -20 -10 -20 -5 0 -10 -9 -10 -20 0 -11 -4 -20 -10 -20 -5 0 -10 -9 -10 -20 0 -11 -4 -20 -10 -20 -5 0 -10 -7 -10 -15 0 -8 -4 -15 -10 -15 -5 0 -10 -9 -10 -20 0 -11 -4 -20 -10 -20 -5 0 -10 -9 -10 -20 0 -11 -4 -20 -10 -20 -5 0 -10 -7 -10 -15 0 -18 -32 -89 -42 -93 -5 -2 -8 -12 -8 -23 0 -10 -4 -19 -10 -19 -5 0 -10 -9 -10 -20 0 -11 -4 -20 -10 -20 -5 0 -10 -9 -10 -19 0 -11 -3 -21 -7 -23 -16 -6 -53 -91 -53 -118 0 -49 50 -120 85 -120 8 0 15 -4 15 -10 0 -5 25 -10 55 -10 30 0 55 -4 55 -10 0 -6 32 -10 75 -10 43 0 75 -4 75 -10 0 -6 38 -10 94 -10 53 0 98 -4 101 -10 4 -6 88 -10 221 -10 136 0 214 -4 214 -10 0 -6 57 -10 150 -10 93 0 150 4 150 10 0 6 70 10 190 10 120 0 190 4 190 10 0 6 38 10 95 10 57 0 95 4 95 10 0 6 35 10 85 10 50 0 85 4 85 10 0 6 28 10 65 10 37 0 65 4 65 10 0 6 27 10 60 10 33 0 60 4 60 8 0 5 46 14 103 21 156 19 177 22 177 32 0 5 20 9 44 9 25 0 48 4 51 10 3 5 22 10 41 10 19 0 34 5 34 10 0 6 18 10 40 10 22 0 40 5 40 10 0 6 14 10 30 10 17 0 30 5 30 10 0 6 16 10 35 10 19 0 35 5 35 10 0 6 14 10 30 10 17 0 30 5 30 10 0 6 15 10 34 10 19 0 37 4 40 9 4 5 29 12 56 16 27 4 52 11 56 16 3 5 14 9 24 9 11 0 35 9 55 20 20 11 44 20 55 20 11 0 20 5 20 10 0 6 14 10 30 10 17 0 30 5 30 10 0 6 9 10 20 10 11 0 20 5 20 10 0 6 11 10 25 10 14 0 25 5 25 10 0 6 9 10 20 10 11 0 20 5 20 10 0 6 9 10 20 10 11 0 20 4 20 9 0 5 18 12 40 16 22 4 42 11 46 16 3 5 14 9 25 9 10 0 19 5 19 10 0 6 9 10 20 10 11 0 20 5 20 10 0 6 9 10 20 10 11 0 20 5 20 10 0 6 9 10 20 10 11 0 20 5 20 10 0 6 7 10 15 10 8 0 15 5 15 10 0 6 8 10 18 10 10 0 24 9 32 20 8 11 22 20 32 20 10 0 18 5 18 10 0 6 8 10 18 10 9 0 34 11 54 25 20 14 41 25 45 25 5 0 15 9 23 20 8 11 22 20 32 20 10 0 18 5 18 10 0 6 6 10 13 10 7 0 23 9 35 20 12 11 24 20 27 20 3 0 18 11 33 25 15 14 34 25 42 25 9 0 22 9 30 20 8 11 20 20 26 20 6 0 25 13 42 30 18 16 34 30 37 30 2 0 26 20 52 45 25 25 51 45 56 45 5 0 47 37 92 83 84 84 131 127 141 127 9 0 54 49 54 60 0 6 38 48 85 93 47 45 85 88 85 96 0 7 18 30 40 51 22 21 40 41 40 44 0 4 14 20 30 38 17 17 30 37 30 44 0 8 5 14 10 14 6 0 10 28 10 65 0 37 -4 65 -10 65 -5 0 -10 7 -10 16 0 9 -13 29 -30 44 -16 15 -30 31 -30 35 0 4 -13 20 -30 35 -16 15 -30 33 -30 40 0 6 -6 18 -12 25 -23 25 -33 40 -47 68 -8 15 -18 27 -23 27 -4 0 -8 5 -8 11 0 6 -13 24 -30 39 -16 15 -30 33 -30 40 0 7 -12 24 -28 38 -15 15 -33 40 -40 55 -6 15 -19 30 -27 33 -8 4 -15 14 -15 23 0 9 -9 23 -20 31 -11 8 -20 21 -20 28 0 8 -13 27 -30 42 -16 15 -30 31 -30 35 0 4 -9 16 -21 26 -14 12 -22 34 -26 71 -5 49 -3 56 23 84 16 17 45 39 64 49 19 10 37 21 40 24 3 3 19 13 35 21 17 8 33 19 37 25 5 6 8 5 8 -2 0 -7 9 -13 20 -13 20 0 90 -61 90 -77 0 -5 9 -15 20 -23 11 -8 20 -21 20 -29 0 -7 8 -21 18 -30 9 -9 30 -35 45 -58 15 -24 32 -43 37 -43 6 0 10 -7 10 -16 0 -9 14 -29 30 -44 17 -15 30 -34 30 -40 0 -7 8 -20 18 -29 10 -9 27 -31 37 -48 11 -18 23 -33 27 -33 4 0 8 -6 8 -13 0 -25 67 -87 94 -87 14 0 26 -4 26 -10 0 -13 57 -13 65 0 3 6 13 10 21 10 19 0 84 65 84 85 0 8 5 15 10 15 6 0 10 8 10 18 0 9 7 26 15 36 8 11 15 28 15 38 0 10 5 18 10 18 6 0 10 9 10 20 0 11 5 20 10 20 6 0 10 9 10 20 0 11 5 20 10 20 6 0 10 11 10 25 0 14 5 25 10 25 6 0 10 9 10 20 0 11 5 20 10 20 6 0 10 9 10 19 0 11 5 23 10 26 6 3 10 17 10 31 0 13 5 24 10 24 6 0 10 9 10 20 0 11 5 20 10 20 6 0 10 10 10 23 1 12 7 33 15 47 8 14 14 37 15 53 0 15 5 27 10 27 6 0 10 11 10 25 0 14 5 25 10 25 6 0 10 14 10 30 0 17 5 30 10 30 6 0 10 14 10 30 0 17 5 30 10 30 6 0 10 16 10 35 0 19 5 35 10 35 6 0 10 18 10 40 0 22 5 40 10 40 6 0 10 18 10 40 0 22 4 40 9 40 10 0 19 63 27 186 l5 81 -36 36 -37 37 -103 0 c-59 0 -107 -4 -110 -10 -3 -5 -33 -10 -65 -10 -32 0 -62 -4 -65 -10 -3 -5 -30 -10 -60 -10 -30 0 -57 -4 -60 -10 -3 -5 -31 -10 -61 -10 -30 0 -54 -4 -54 -10 0 -6 -28 -10 -65 -10 -37 0 -65 -4 -65 -10 0 -6 -27 -10 -60 -10 -33 0 -60 -4 -60 -10 0 -6 -28 -10 -65 -10 -37 0 -65 -4 -65 -10 0 -5 -25 -10 -55 -10 -30 0 -55 -4 -55 -8 0 -5 -55 -14 -122 -21 -68 -6 -149 -14 -180 -17 -32 -3 -58 -10 -58 -15 0 -5 -29 -9 -64 -9 -36 0 -68 -4 -71 -10 -3 -5 -31 -10 -61 -10 -30 0 -54 -4 -54 -10 0 -5 -12 -10 -26 -10 -17 0 -36 -11 -55 -32 -24 -27 -29 -42 -29 -85 0 -29 -4 -53 -10 -53 -6 0 -10 -35 -10 -85 0 -50 -4 -85 -10 -85 -6 0 -10 -31 -10 -74 0 -41 -4 -78 -10 -81 -5 -3 -10 -44 -10 -91 0 -49 -4 -84 -10 -84 -6 0 -10 -32 -10 -75 0 -43 -4 -75 -10 -75 -6 0 -10 -35 -10 -85 0 -50 -4 -85 -10 -85 -6 0 -10 -35 -10 -85 0 -50 -4 -85 -10 -85 -6 0 -10 -31 -10 -73 0 -40 -4 -77 -9 -82 -5 -6 -12 -46 -15 -90 -19 -273 -30 -395 -38 -395 -4 0 -8 -36 -8 -80 0 -47 -4 -80 -10 -80 -6 0 -10 -35 -10 -85 0 -50 -4 -85 -10 -85 -5 0 -10 -6 -10 -13 0 -8 -16 -28 -35 -45 -26 -25 -44 -32 -74 -32 -22 0 -43 5 -46 10 -3 6 -31 10 -61 10 -30 0 -54 5 -54 10 0 6 -24 10 -54 10 -30 0 -57 4 -60 9 -3 5 -55 12 -116 16 -60 4 -110 11 -110 16 0 5 -25 9 -55 9 -30 0 -55 5 -55 10 0 6 -27 10 -60 10 -33 0 -60 4 -60 10 0 6 -25 10 -55 10 -30 0 -55 5 -55 10 0 6 -24 10 -54 10 -30 0 -58 5 -61 10 -3 5 -31 10 -61 10 -30 0 -54 5 -54 10 0 6 -25 10 -55 10 -30 0 -55 5 -55 10 0 6 -37 10 -90 10 -90 0 -91 0 -125 -35 -19 -19 -35 -39 -35 -44 0 -5 -9 -26 -19 -48 -34 -68 -51 -111 -51 -127 0 -9 -4 -16 -10 -16 -5 0 -10 -9 -10 -20 0 -11 -4 -20 -10 -20 -5 0 -10 -11 -10 -25 0 -14 -4 -25 -10 -25 -5 0 -10 -9 -10 -20 0 -11 -4 -20 -10 -20 -5 0 -10 -9 -10 -20 0 -11 -4 -20 -10 -20 -5 0 -10 -9 -10 -20 0 -11 -4 -20 -10 -20 -5 0 -10 -8 -10 -18 0 -9 -16 -50 -35 -89 -19 -40 -35 -84 -35 -98 0 -14 -4 -25 -10 -25 -5 0 -10 -7 -10 -15 0 -8 -4 -15 -10 -15 -5 0 -10 -9 -10 -20 0 -11 -4 -20 -10 -20 -5 0 -10 -9 -10 -20 0 -11 -4 -20 -10 -20 -5 0 -10 -13 -10 -30 0 -16 -4 -30 -10 -30 -5 0 -10 -6 -10 -13 0 -8 -9 -22 -20 -32 -11 -10 -20 -23 -20 -29 0 -6 -12 -17 -27 -23 -32 -15 -83 -17 -83 -3 0 6 -9 10 -20 10 -11 0 -20 5 -20 10 0 6 -6 10 -12 10 -28 -1 -118 55 -118 72 0 10 -4 18 -10 18 -5 0 -10 14 -10 30 0 17 5 30 10 30 6 0 10 6 10 13 0 7 10 33 22 58 14 29 23 69 26 116 4 62 1 76 -18 102 -12 17 -28 31 -36 31 -8 0 -14 5 -14 10 0 6 -13 10 -30 10 -16 0 -30 5 -30 10 0 6 -13 10 -30 10 -16 0 -30 5 -30 10 0 6 -11 10 -25 10 -14 0 -25 5 -25 10 0 6 -13 10 -30 10 -16 0 -30 5 -30 10 0 6 -7 10 -15 10 -8 0 -23 4 -33 10 -29 16 -111 40 -137 40 -14 0 -25 5 -25 10 0 6 -11 10 -24 10 -14 0 -28 5 -31 10 -3 6 -17 10 -31 10 -13 0 -24 5 -24 10 0 6 -13 10 -30 10 -16 0 -30 5 -30 10 0 6 -9 10 -20 10 -11 0 -20 5 -20 10 0 6 -11 10 -24 10 -14 0 -28 5 -31 10 -3 6 -17 10 -31 10 -13 0 -24 5 -24 10 0 6 -13 10 -30 10 -16 0 -30 4 -30 9 0 5 -12 11 -27 15 -16 3 -54 11 -85 18 -32 7 -58 16 -58 20 0 4 -7 8 -16 8 -9 0 -26 10 -36 23 -18 19 -20 32 -15 102 3 44 10 81 16 83 6 2 11 12 11 23 0 10 5 19 10 19 6 0 10 7 10 15 0 9 11 27 25 40 18 19 35 25 70 25 25 0 45 -4 45 -10 0 -5 11 -10 25 -10 14 0 25 -4 25 -10 0 -5 14 -10 30 -10 17 0 30 -4 30 -10 0 -5 14 -10 30 -10 17 0 30 -4 30 -10 0 -5 11 -10 25 -10 14 0 25 -4 25 -10 0 -5 14 -10 30 -10 17 0 30 -4 30 -10 0 -5 7 -10 15 -10 8 0 23 -4 33 -9 32 -16 117 -41 140 -41 12 0 22 -4 22 -10 0 -5 14 -10 30 -10 17 0 30 -4 30 -10 0 -5 11 -10 25 -10 14 0 25 -4 25 -10 0 -5 14 -10 30 -10 17 0 30 -4 30 -10 0 -5 9 -10 20 -10 11 0 20 -4 20 -10 0 -5 14 -10 30 -10 17 0 30 -4 30 -10 0 -5 11 -10 24 -10 14 0 28 -4 31 -10 3 -5 17 -10 31 -10 13 0 24 -4 24 -10 0 -5 13 -10 28 -10 15 0 33 -5 40 -12 7 -7 52 -14 108 -16 88 -4 97 -3 120 19 13 12 24 28 24 36 0 7 5 13 10 13 6 0 10 9 10 20 0 11 5 20 10 20 6 0 10 13 10 29 0 16 4 31 8 33 4 2 20 30 36 63 15 33 31 68 37 77 5 10 9 29 9 43 0 14 5 25 10 25 6 0 10 7 10 15 0 8 5 15 10 15 6 0 10 9 10 20 0 11 5 20 10 20 6 0 10 7 10 15 0 9 16 31 35 50 28 28 42 35 75 35 22 0 40 -4 40 -10 0 -6 27 -10 60 -10 33 0 60 -4 60 -10 0 -5 25 -10 55 -10 30 0 55 -4 55 -10 0 -6 27 -10 60 -10 33 0 60 -4 60 -10 0 -5 25 -10 55 -10 30 0 55 -4 55 -10 0 -5 24 -10 54 -10 30 0 58 -5 61 -10 3 -5 31 -10 61 -10 30 0 54 -4 54 -10 0 -5 24 -10 54 -10 30 0 57 -4 60 -9 3 -5 55 -12 116 -16 60 -4 110 -11 110 -16 0 -5 43 -9 95 -9 57 0 95 4 95 10 0 6 9 10 20 10 13 0 22 9 26 25 3 14 10 25 15 25 5 0 9 34 9 75 0 43 4 75 10 75 6 0 10 37 10 90 0 53 4 90 10 90 6 0 10 32 10 75 0 43 4 75 10 75 6 0 10 35 10 85 0 50 4 85 10 85 6 0 10 31 10 74 0 41 5 78 10 81 6 3 10 42 10 86 0 46 4 79 10 79 6 0 10 31 10 74 0 41 5 78 10 81 6 3 10 42 10 85 0 43 4 81 9 84 5 3 12 78 16 166 4 88 11 160 16 160 5 0 9 38 9 85 0 50 4 85 10 85 6 0 10 32 10 75 0 43 4 75 10 75 6 0 10 9 10 20 0 11 5 20 10 20 6 0 10 6 10 13 0 17 42 37 75 37 13 0 27 5 30 10 3 6 33 10 66 10 33 0 59 4 59 10 0 6 25 10 55 10 30 0 55 5 55 10 0 6 28 10 65 10 37 0 65 4 65 10 0 6 27 10 60 10 33 0 60 4 60 10 0 6 28 10 65 10 37 0 65 4 65 10 0 6 27 10 60 10 33 0 60 4 60 10 0 6 25 10 55 10 30 0 55 4 55 9 0 5 54 12 120 16 66 4 122 11 126 16 3 5 32 9 64 9 32 0 62 5 65 10 3 6 31 10 61 10 30 0 54 5 54 10 0 6 27 10 60 10 33 0 60 4 60 10 0 6 28 10 65 10 37 0 65 4 65 10 0 6 25 10 55 10 30 0 55 5 55 10 0 6 28 10 64 10 36 0 68 5 71 10 3 6 31 10 61 10 30 0 54 5 54 10 0 6 14 10 30 10 27 0 30 -3 30 -30 0 -16 4 -30 9 -30 6 0 11 -21 13 -47 2 -29 8 -48 17 -51 12 -4 13 17 8 133 -3 76 -11 143 -17 149 -5 5 -10 27 -10 47 0 21 -4 41 -10 44 -5 3 -10 19 -10 36 0 16 -4 29 -10 29 -5 0 -10 14 -10 30 0 17 -4 30 -10 30 -5 0 -10 11 -10 25 0 14 -4 25 -10 25 -5 0 -10 14 -10 30 0 17 -4 30 -10 30 -5 0 -10 9 -10 20 0 11 -4 20 -10 20 -5 0 -10 9 -10 20 0 11 -4 20 -10 20 -5 0 -10 6 -10 12 0 19 -72 158 -81 158 -5 0 -9 6 -9 13 0 8 -9 22 -20 32 -11 10 -20 22 -20 28 0 5 -13 22 -30 37 -16 15 -30 34 -30 41 0 14 -274 289 -289 289 -6 0 -21 11 -35 25 -14 14 -31 25 -38 25 -7 0 -19 9 -26 20 -7 11 -19 20 -27 20 -8 0 -15 5 -15 10 0 6 -30 10 -70 10 -62 0 -74 -3 -95 -25 -14 -13 -25 -31 -25 -40 0 -8 -4 -15 -10 -15 -5 0 -10 -9 -10 -20 0 -11 -3 -20 -7 -20 -11 0 -33 -50 -33 -72 0 -10 -4 -18 -10 -18 -5 0 -10 -9 -10 -20 0 -11 -4 -20 -10 -20 -5 0 -10 -6 -10 -14 0 -7 -7 -27 -15 -42 -8 -16 -15 -39 -15 -51 0 -13 -4 -23 -10 -23 -5 0 -10 -9 -10 -20 0 -11 -4 -20 -10 -20 -5 0 -10 -9 -10 -20 0 -11 -4 -20 -10 -20 -5 0 -10 -11 -10 -25 0 -14 -4 -25 -10 -25 -5 0 -10 -9 -10 -20 0 -11 -4 -20 -10 -20 -5 0 -10 -9 -10 -20 0 -11 -4 -20 -10 -20 -5 0 -10 -9 -10 -20 0 -11 -4 -20 -10 -20 -5 0 -10 -8 -10 -18 0 -10 -11 -41 -25 -68 -14 -27 -25 -61 -25 -76 0 -16 -4 -28 -10 -28 -5 0 -10 -9 -10 -20 0 -11 -4 -20 -10 -20 -5 0 -10 -7 -10 -15 0 -8 -4 -15 -10 -15 -5 0 -10 -9 -10 -20 0 -11 -4 -20 -10 -20 -5 0 -10 -13 -10 -30 0 -16 -4 -30 -10 -30 -5 0 -10 -7 -10 -16 0 -20 -37 -54 -60 -54 -9 0 -21 -5 -26 -10 -7 -7 -20 -6 -40 5 -16 8 -39 15 -51 15 -12 0 -25 5 -28 10 -3 6 -15 10 -26 10 -10 0 -19 5 -19 10 0 6 -5 10 -11 10 -40 0 -82 125 -49 145 15 9 12 78 -5 112 -34 68 -30 67 -323 73 -200 4 -266 8 -270 18 -2 6 -12 12 -23 12 -12 0 -19 7 -19 20 0 11 -4 20 -10 20 -6 0 -10 42 -10 105 0 63 4 105 10 105 6 0 10 7 10 16 0 20 24 44 44 44 9 0 16 5 16 10 0 6 138 10 395 10 238 0 395 4 395 9 0 5 9 12 19 16 11 3 26 19 33 35 7 17 16 30 20 30 5 0 8 14 8 30 0 17 5 30 10 30 6 0 10 9 10 20 0 11 5 20 10 20 6 0 10 9 10 20 0 11 5 20 10 20 6 0 10 11 10 25 0 14 5 25 10 25 6 0 10 9 10 20 0 11 5 20 10 20 6 0 10 8 10 18 0 9 7 30 15 46 8 15 15 37 15 47 0 11 5 19 10 19 6 0 10 9 10 20 0 11 5 20 10 20 6 0 10 9 10 20 0 11 5 20 10 20 6 0 10 14 10 30 0 17 5 30 10 30 6 0 10 7 10 15 0 8 5 15 10 15 6 0 10 9 10 20 0 11 5 20 10 20 6 0 10 9 10 19 0 11 5 23 10 26 6 3 10 17 10 30 0 13 6 25 13 28 9 3 12 71 12 297 0 226 -3 294 -12 298 -8 2 -13 20 -13 43 0 21 -4 39 -10 39 -5 0 -10 11 -10 24 0 14 -4 28 -10 31 -5 3 -10 17 -10 31 0 13 -4 24 -10 24 -5 0 -10 9 -10 20 0 11 -4 20 -10 20 -5 0 -10 9 -10 20 0 11 -4 20 -10 20 -5 0 -10 6 -10 13 0 7 -9 23 -20 35 -11 12 -20 26 -20 32 0 5 -4 10 -9 10 -5 0 -14 13 -21 29 -17 43 -117 141 -142 141 -8 0 -20 9 -28 20 -8 11 -19 20 -25 20 -6 0 -17 9 -25 20 -8 11 -22 20 -32 20 -10 0 -18 5 -18 10 0 6 -9 10 -20 10 -11 0 -20 5 -20 10 0 6 -9 10 -20 10 -11 0 -20 4 -20 8 0 13 -119 51 -183 58 -31 4 -57 11 -57 15 0 5 -27 9 -60 9 -33 0 -60 4 -60 10 0 6 -85 10 -235 10 -150 0 -235 -4 -235 -10 0 -6 -32 -10 -75 -10 -43 0 -75 -4 -75 -10 0 -5 -22 -10 -50 -10 -27 0 -50 5 -50 10 0 6 -8 10 -17 10 -10 0 -26 12 -36 25 -16 23 -17 55 -12 472 2 246 7 530 10 631 6 178 5 182 -15 182 -11 0 -20 5 -20 10 0 6 -30 10 -70 10 -40 0 -70 4 -70 10 0 6 -28 10 -65 10 -37 0 -65 4 -65 10 0 6 -25 10 -55 10 -30 0 -55 5 -55 10 0 15 -33 11 -47 -5z"/>
 </g>

</svg>